<svg id="图层_1" data-name="图层 1" xmlns="http://www.w3.org/2000/svg" xmlns:xlink="http://www.w3.org/1999/xlink" viewBox="0 0 406.59 112.07"><defs><style>.cls-1{fill:none;}.cls-2{fill:#333;}.cls-3{clip-path:url(#clip-path);}.cls-4{clip-path:url(#clip-path-2);}.cls-5{fill:url(#未命名的渐变);}.cls-6{clip-path:url(#clip-path-3);}.cls-7{fill:#02c999;}.cls-8{clip-path:url(#clip-path-4);}.cls-9{fill:url(#未命名的渐变_2);}.cls-10{clip-path:url(#clip-path-5);}.cls-11{fill:url(#未命名的渐变_3);}.cls-12{clip-path:url(#clip-path-6);}.cls-13{fill:url(#未命名的渐变_4);}.cls-14{clip-path:url(#clip-path-7);}.cls-15{fill:url(#未命名的渐变_5);}.cls-16{clip-path:url(#clip-path-8);}.cls-17{fill:url(#未命名的渐变_6);}</style><clipPath id="clip-path"><rect class="cls-1" width="112.04" height="112.04"/></clipPath><clipPath id="clip-path-2"><polyline class="cls-1" points="37.15 38.69 37.15 38.69 37.15 38.69 37.15 38.69"/></clipPath><linearGradient id="未命名的渐变" x1="4306.92" y1="-10614.89" x2="4307.92" y2="-10614.89" gradientTransform="translate(164.1 -279.75) rotate(180) scale(0.03)" gradientUnits="userSpaceOnUse"><stop offset="0" stop-color="#243c6c"/><stop offset="1" stop-color="#08fbcf"/></linearGradient><clipPath id="clip-path-3"><rect class="cls-1" x="-731.34" y="-297.27" width="1920" height="1080"/></clipPath><clipPath id="clip-path-4"><path class="cls-1" d="M26.91,8.19A8,8,0,0,0,24.81,20,39.9,39.9,0,0,0,56,35,39.9,39.9,0,0,0,87.2,20,8,8,0,0,0,85.1,8.15a56,56,0,0,0-58.17,0"/></clipPath><linearGradient id="未命名的渐变_2" x1="-843.15" y1="-334.49" x2="-842.15" y2="-334.49" gradientTransform="translate(11729.81 -29387.05) rotate(-90) scale(34.9)" gradientUnits="userSpaceOnUse"><stop offset="0" stop-color="#0094f4"/><stop offset="0.98" stop-color="#00c9c3"/><stop offset="1" stop-color="#00c9c3"/></linearGradient><clipPath id="clip-path-5"><path class="cls-1" d="M24.81,92a8,8,0,0,0,2.1,11.89,56,56,0,0,0,58.17,0A8,8,0,0,0,87.19,92a40,40,0,0,0-62.38,0"/></clipPath><linearGradient id="未命名的渐变_3" x1="-822.85" y1="-337.17" x2="-821.85" y2="-337.17" gradientTransform="translate(-10706.54 26341.05) rotate(90) scale(31.92)" xlink:href="#未命名的渐变_2"/><clipPath id="clip-path-6"><path class="cls-1" d="M92,24.85a40,40,0,0,0,0,62.38,8,8,0,0,0,11.89-2.11,56,56,0,0,0,0-58.17A8,8,0,0,0,92,24.85"/></clipPath><linearGradient id="未命名的渐变_4" x1="-831.59" y1="-329.36" x2="-830.59" y2="-329.36" gradientTransform="translate(48477.91 19225.43) scale(58.2)" gradientUnits="userSpaceOnUse"><stop offset="0" stop-color="#00c7a3"/><stop offset="0.82" stop-color="#affd09"/><stop offset="1" stop-color="#affd09"/></linearGradient><clipPath id="clip-path-7"><path class="cls-1" d="M8.15,26.95a56,56,0,0,0,0,58.17A8,8,0,0,0,20,87.23,39.91,39.91,0,0,0,35,56,39.91,39.91,0,0,0,20,24.85a8,8,0,0,0-11.89,2.1"/></clipPath><linearGradient id="未命名的渐变_5" x1="-836.06" y1="-343.64" x2="-835.06" y2="-343.64" gradientTransform="translate(-31282.28 -12816.2) rotate(180) scale(37.46)" xlink:href="#未命名的渐变_2"/><clipPath id="clip-path-8"><path class="cls-1" d="M16.8,38.39Z"/></clipPath><linearGradient id="未命名的渐变_6" x1="4285.56" y1="-10623.63" x2="4286.56" y2="-10623.63" gradientTransform="translate(143.08 -280.33) rotate(180) scale(0.03)" xlink:href="#未命名的渐变"/></defs><title>葱花投研33</title><path class="cls-2" d="M146.79,42.36c-1.56,4.26-3.79,9.48-6.79,12.78l-4.8-2.7c3-3.06,5.4-7.92,6.78-12Zm7.44-29.52-1.38,2.34h32.88s-.06,1.5-.18,2.28c-.9,12.12-1.86,17-3.48,18.84a5,5,0,0,1-3.72,1.8,35.92,35.92,0,0,1-5.94.12,14.86,14.86,0,0,0-.9-3.84c-1.38-.6-3-1.26-4.74-1.92a39.94,39.94,0,0,1-5.94,6.3,29.42,29.42,0,0,0-4.2-3.36,28.14,28.14,0,0,0,5-4.68L155.75,29a51,51,0,0,1-10,8.88,33.82,33.82,0,0,0-4-3.54,41.55,41.55,0,0,0,8.58-6.72l-4.5-1L149,22.8l4.62.9a36.6,36.6,0,0,0,2.76-4H149.6a43,43,0,0,1-10.26,8.88,16,16,0,0,0-3.6-3.9,31.15,31.15,0,0,0,13-12.78Zm-4.62-8.28V.9h5.46V4.56h15.24V.9h5.52V4.56h13.68V9.42H175.83V13h-5.52V9.42H155.07v2.46h-5.46V9.42H136.47V4.56Zm5.58,35v9.36c0,1.56.54,1.86,3.84,1.86h10.44c2.7,0,3.12-.78,3.42-6.48a14.08,14.08,0,0,0,5,2c-.72,7.68-2.28,9.48-7.92,9.48h-11.4c-7.08,0-8.76-1.5-8.76-6.84v-9.4Zm7.56-1.8a47.51,47.51,0,0,1,7.08,6.54l-4.26,3.18a41.36,41.36,0,0,0-6.9-6.84ZM158.85,25l5.82,1.68a39.7,39.7,0,0,0,3.48-7h-6.06a42.89,42.89,0,0,1-3.24,5.3Zm10.8,3.24c1.86.66,3.6,1.32,5,1.92l-2.4,3.24,3.36.06a1.91,1.91,0,0,0,1.8-.66c1-1,1.74-4.5,2.46-13.08h-6.18a55.78,55.78,0,0,1-4,8.5Zm12.6,11.94a49.66,49.66,0,0,1,7.5,12.18l-5.22,2.16A49.83,49.83,0,0,0,177.39,42Z"/><path class="cls-2" d="M228.39,19.38a60.3,60.3,0,0,1-5.1,8.4v28.8h-5.76V34.8a46.12,46.12,0,0,1-5.34,5,39,39,0,0,0-4.68-4,48.58,48.58,0,0,0,15.24-18.16ZM247.83.9V6.42h13.56v5.4H247.83V17H242V11.82H228v4.92h-5.76V11.82H208.35V6.42h13.92V.9H228V6.42h14V.9Zm12,25.86a130.08,130.08,0,0,1-18.12,10.08V47.16c0,2.52.48,3,3.3,3h9.12c2.64,0,3.06-1.5,3.42-9.12a15.9,15.9,0,0,0,5.34,2.34c-.72,9.36-2.34,12.24-8.34,12.24h-10.2c-6.6,0-8.46-1.92-8.46-8.52V39.54l-7,2.94a19.62,19.62,0,0,0-2.22-4.32c3.06-1.26,6.18-2.64,9.24-4.14V18.24h5.82V31a97.62,97.62,0,0,0,14.1-8.88Z"/><path class="cls-2" d="M292.71.9V12.72h7V18h-7v10.5l5.1-1.38.72,5.22L292.71,34V49.86c0,2.94-.66,4.38-2.4,5.22s-4.44,1-8.64,1A21.39,21.39,0,0,0,280,50.94c2.64.06,5.16.06,5.94.06s1.14-.3,1.14-1.14V35.58l-7,2-1.56-5.46L287,30V18H279.3V12.72H287V.9Zm33.36,26.28,1-.18,3.66,1.56A38,38,0,0,1,319.57,46a47.17,47.17,0,0,0,15.06,5.46A26.49,26.49,0,0,0,331,56.7a47.44,47.44,0,0,1-16.32-7.08,55.53,55.53,0,0,1-17.1,7,20.5,20.5,0,0,0-2.82-5.16,49.6,49.6,0,0,0,15.3-5.58A42.89,42.89,0,0,1,300.87,33l1.38-.48h-2.82V27.18ZM325,2.94V16.5c0,1.74.12,2.4,1.08,2.4h4a13.61,13.61,0,0,0,3.18-.36c.06,1.44.24,3.48.42,4.8a11.93,11.93,0,0,1-3.48.36h-4.62c-5,0-6-2-6-7.26V8.22h-9.3V9.66c0,5.7-1.74,12.24-9.48,16.38a24.21,24.21,0,0,0-3.72-4.14c6.9-3.48,7.86-8.16,7.86-12.36V2.94ZM306.45,32.52a32.35,32.35,0,0,0,8.4,10.14,31,31,0,0,0,8.28-10.14Z"/><path class="cls-2" d="M373,4V9.12h-9a103.25,103.25,0,0,1-3.6,13.32h11.76v26.7H360.27v4.68h-4.8V33.42a40.77,40.77,0,0,1-2.82,4.08A26.65,26.65,0,0,0,350.37,31c4.08-5.4,6.66-13.38,8.22-22h-7V4ZM360.27,44.1h7V27.48h-7Zm20.52-18.54V9.36h-4.62V4h29.22V9.36H400v16.2h6.54V31H400V56.58h-5.4V31H386c-.3,9.06-1.86,19.14-8.46,26a21.61,21.61,0,0,0-4.32-3.3c5.7-6.06,7.14-14.94,7.44-22.68H374.5v-5.4Zm5.34-16.2v16.2h8.52V9.36Z"/><path class="cls-2" d="M137,87.21c0-10,5.84-16,13.65-16A11.36,11.36,0,0,1,159.11,75L157,77.55a8.44,8.44,0,0,0-6.3-2.9c-5.8,0-9.7,4.75-9.7,12.43s3.7,12.64,9.58,12.64a9.27,9.27,0,0,0,7.14-3.49l2.14,2.48a11.9,11.9,0,0,1-9.45,4.41C142.73,103.13,137,97.21,137,87.21Z"/><path class="cls-2" d="M168.39,69.14h3.86V78.3l-.17,4.7c2.1-2.1,4.45-3.82,7.56-3.82,4.79,0,7,3.15,7,8.95v14.45h-3.82V88.64c0-4.29-1.3-6.09-4.33-6.09-2.35,0-3.95,1.18-6.22,3.49v16.55h-3.86Z"/><path class="cls-2" d="M195.31,91.2c0-7.6,5-12,10.54-12s10.54,4.41,10.54,12-5,11.93-10.54,11.93S195.31,98.76,195.31,91.2Zm17.18,0c0-5.25-2.69-8.78-6.64-8.78s-6.59,3.53-6.59,8.78,2.65,8.74,6.59,8.74,6.64-3.49,6.64-8.74Z"/><path class="cls-2" d="M225.59,79.77h3.15l.38,2.65h.08c2.06-1.72,4.62-3.23,7.27-3.23,5.88,0,9.07,4.58,9.07,11.64,0,7.81-4.71,12.31-9.91,12.31a10,10,0,0,1-6.3-2.65l.13,4v7.73H225.6Zm16,11.09c0-5.08-1.68-8.44-6-8.44-1.89,0-3.86,1.09-6,3.11v12A8.57,8.57,0,0,0,235,99.89c3.78,0,6.55-3.4,6.55-9Z"/><path class="cls-2" d="M255.12,71.79H259v30.79h-3.86Z"/><path class="cls-2" d="M270.15,79.77h3.15l.38,3.32h.08c2.14-2.18,4.54-3.91,7.65-3.91,4.79,0,7,3.15,7,8.95v14.45h-3.82V88.64c0-4.29-1.3-6.09-4.33-6.09-2.35,0-4,1.18-6.22,3.49v16.55h-3.87Z"/><path class="cls-2" d="M296.36,100l1.85-2.56a10.26,10.26,0,0,0,6.76,2.73c3,0,4.49-1.6,4.49-3.57,0-2.31-2.69-3.4-5.21-4.33-3.19-1.18-6.64-2.69-6.64-6.6,0-3.61,2.86-6.47,7.86-6.47a11.27,11.27,0,0,1,7.06,2.6l-1.85,2.39a8.6,8.6,0,0,0-5.17-2c-2.9,0-4.24,1.51-4.24,3.32,0,2.14,2.35,3,4.92,3.95,3.32,1.26,6.93,2.6,6.93,6.93,0,3.7-2.9,6.76-8.28,6.76A13.54,13.54,0,0,1,296.36,100Z"/><path class="cls-2" d="M321.1,72.51A2.37,2.37,0,0,1,323.36,70h.26a2.52,2.52,0,1,1-2.52,2.52v0Zm.59,7.27h3.87v22.81h-3.87Z"/><path class="cls-2" d="M334.62,107a6.23,6.23,0,0,1,3.36-5.17v-.21a4.18,4.18,0,0,1-2.06-3.74,5.42,5.42,0,0,1,2.52-4.24v-.17a7.94,7.94,0,0,1-3-6.13c0-5,4-8.15,8.53-8.15a8.56,8.56,0,0,1,3.23.59h7.94v2.94H350.5a6.52,6.52,0,0,1,1.85,4.71c0,4.87-3.65,7.94-8.36,7.94a7.9,7.9,0,0,1-3.36-.8,3.4,3.4,0,0,0-1.47,2.73c0,1.43.92,2.48,4,2.48h4.5c5.25,0,7.94,1.64,7.94,5.42,0,4.24-4.5,7.9-11.55,7.9C338.48,113,334.62,110.9,334.62,107Zm17.18-1.18c0-2.14-1.6-2.9-4.62-2.9h-4a12.64,12.64,0,0,1-2.94-.34,4.81,4.81,0,0,0-2.31,3.86c0,2.44,2.44,4,6.59,4,4.43,0,7.23-2.31,7.23-4.66Zm-2.94-18.48C348.86,84,346.72,82,344,82s-4.83,2-4.83,5.33,2.23,5.42,4.83,5.42,4.87-2.15,4.87-5.47Z"/><path class="cls-2" d="M363.18,69.14H367V78.3l-.17,4.7c2.1-2.1,4.45-3.82,7.56-3.82,4.79,0,7,3.15,7,8.95v14.45h-3.82V88.64c0-4.29-1.3-6.09-4.33-6.09-2.35,0-4,1.18-6.22,3.49v16.55h-3.87Z"/><path class="cls-2" d="M392.45,95.53V82.88h-3.4V80l3.61-.21.42-6.43h3.19v6.43h6.22v3.11h-6.22V95.65c0,2.77.88,4.37,3.53,4.37a7,7,0,0,0,2.6-.63l.76,2.9a14.37,14.37,0,0,1-4.24.84C394.09,103.13,392.45,100.1,392.45,95.53Z"/><g class="cls-3"><g class="cls-4"><rect class="cls-5" x="37.14" y="38.68" width="0.03" height="0.03" transform="translate(-16.46 36.74) rotate(-44.08)"/></g><g class="cls-6"><path class="cls-7" d="M60.92,43.95H51A7.13,7.13,0,0,0,43.84,51V61A7.13,7.13,0,0,0,51,68.15h10A7.13,7.13,0,0,0,68.05,61V51a7.13,7.13,0,0,0-7.13-7.13h0"/></g><g class="cls-8"><rect class="cls-9" x="18.39" y="-8.3" width="75.23" height="51.69" transform="translate(-2.64 15.26) rotate(-15.16)"/></g><g class="cls-10"><rect class="cls-11" x="20.34" y="74.07" width="71.29" height="40.94" transform="translate(-8.17 5.34) rotate(-5.09)"/></g><g class="cls-12"><rect class="cls-13" x="77" y="23.09" width="35" height="67.19"/></g><g class="cls-14"><rect class="cls-15" y="23.09" width="35" height="67.19"/></g><g class="cls-16"><rect class="cls-17" x="16.8" y="38.36" width="0.03" height="0.03" transform="translate(-21.93 22.42) rotate(-43.96)"/></g></g></svg>