<?xml version="1.0" encoding="UTF-8" standalone="no"?>
<svg
   width="256"
   height="256"
   version="1.1"
   viewBox="0 0 256 256"
   id="svg74"
   sodipodi:docname="AIURSOFT-logo设计.svg"
   inkscape:version="1.4.3 (0d15f75, 2025-12-25)"
   inkscape:export-batch-name="AIURSOFT"
   inkscape:export-batch-path="D:\桌面\AIURSOFT"
   xmlns:inkscape="http://www.inkscape.org/namespaces/inkscape"
   xmlns:sodipodi="http://sodipodi.sourceforge.net/DTD/sodipodi-0.dtd"
   xmlns="http://www.w3.org/2000/svg"
   xmlns:svg="http://www.w3.org/2000/svg">
  <sodipodi:namedview
     id="namedview74"
     pagecolor="#ffffff"
     bordercolor="#000000"
     borderopacity="0.25"
     inkscape:showpageshadow="2"
     inkscape:pageopacity="0.0"
     inkscape:pagecheckerboard="0"
     inkscape:deskcolor="#d1d1d1"
     inkscape:zoom="0.22627417"
     inkscape:cx="-6923.0173"
     inkscape:cy="4772.9708"
     inkscape:window-width="1920"
     inkscape:window-height="1010"
     inkscape:window-x="-6"
     inkscape:window-y="-6"
     inkscape:window-maximized="1"
     inkscape:current-layer="svg74" />
  <defs
     id="defs6" />
  <g
     id="白彩-256px"
     transform="translate(-1071.6499,6037.8398)">
    <rect
       style="opacity:0;fill:#ffffff;fill-opacity:1;stroke-width:0.118369"
       id="rect444"
       width="256"
       height="256"
       x="1071.6499"
       y="-6037.8398" />
    <g
       transform="matrix(0.21393248,0,0,0.21393248,1709.9375,-5952.5501)"
       id="g448">
      <path
         d="m -1964.6,239.17 c -41.158,-23.376 -82.741,-38.963 -130.3,-48.841 -25.929,-5.3856 -62.352,-9.6855 -87.674,-10.35 l -8.5,-0.22313 -5.5,-8.2213 c -6.4604,-9.6569 -20.614,-32.005 -59.71,-94.279 -75.132,-119.68 -79.255,-125.91 -91.289,-138.13 -12.029,-12.212 -24.683,-19.978 -47.107,-28.912 -12.835,-5.1135 -15.895,-6.6987 -15.893,-8.2337 0,-3.3229 14.475,-26.851 25.963,-42.215 28.401,-37.981 67.301,-71.34 85.364,-73.204 4.381,-0.45216 7.2835,0.14039 17.627,3.5987 34.168,11.424 65.499,31.713 91.568,59.296 13.856,14.661 15.696,17.395 62.78,93.3 41.001,66.249 82.454,132.22 123.4,198.5 7.9824,12.925 19.951,32.275 26.598,43 6.647,10.725 15.282,24.675 19.19,31 8.7407,14.146 11.901,21.286 11.008,24.868 -0.6443,2.5823 -3.2088,6.1317 -4.4303,6.1317 -0.3408,0 -6.2335,-3.1885 -13.095,-7.0856 z"
         id="path444"
         style="fill:#ffffff" />
      <path
         d="m -2857.8,537.74 c -8.2948,-5.6365 -21.871,-26.564 -29.834,-45.991 -10.058,-24.535 -14.147,-47.144 -14.196,-78.498 -0.05,-31.268 4.1774,-54.01 13.847,-74.5 2.7706,-5.8706 15.056,-27.058 28.412,-49 3.6827,-6.05 15.37,-25.625 25.972,-43.5 73.914,-124.62 186.33,-312.12 209.85,-350 17.081,-27.514 27.498,-41.124 43.806,-57.236 13.847,-13.681 21.902,-20.293 36.379,-29.861 35.842,-23.689 78.75,-36.503 130.8,-39.061 24.452,-1.2015 50.399,-0.15996 66.649,2.6753 10.538,1.8386 13.967,3.2759 14.294,5.9917 0.3161,2.6223 -0.4201,3.4391 -12.74,14.134 -25.602,22.225 -50.201,50.928 -69.723,81.357 -6.9627,10.853 -21.098,35.212 -38.59,66.5 -2.7673,4.95 -8.0231,14.175 -11.68,20.5 -74.728,131.82 -150.12,263.27 -225,395 -6.4051,11.275 -17.27,30.175 -24.145,42 -6.8746,11.825 -17.807,30.725 -24.293,42 -15.686,27.265 -18.905,31.935 -29.184,42.35 -17.129,17.354 -55.987,47.429 -71.096,55.027 -7.0765,3.5587 -14.381,3.6006 -19.515,0.1119 z"
         id="path445"
         style="fill:#ffffff" />
      <path
         d="m -1939.4,566.98 c -0.5303,-0.67594 -4.6199,-7.529 -9.088,-15.229 -12.894,-22.221 -52.801,-85.018 -120.85,-190.5 -28.064,-43.461 -36.756,-56.714 -39.88,-60.805 -4.1742,-5.4667 -4.2487,-6.7159 -0.5161,-8.6461 7.1844,-3.7152 38.167,-10.896 60.594,-14.044 46.004,-6.4572 102.67,-2.5244 124.83,8.6639 11.618,5.8646 22.617,19.719 34.957,44.029 7.666,15.102 14.617,35.4 18.254,53.303 2.5276,12.443 2.6209,14.029 2.176,37 -0.509,26.274 -1.9743,36.994 -7.6845,56.215 -5.4769,18.436 -17.091,41.543 -28.604,56.909 -6.9273,9.2454 -27.858,31.463 -31.453,33.387 -1.2064,0.64566 -2.0754,0.55589 -2.7329,-0.28235 z"
         id="path446"
         style="fill:#ffffff" />
      <path
         d="m -2151.4,625.82 c -4.4744,-1.4402 -9.4953,-4.8501 -13.826,-9.3898 -2.2022,-2.3086 -7.6965,-10.371 -22.953,-33.682 -26.839,-43.004 -54.271,-85.632 -81.326,-128.5 -18.811,-29.822 -22.562,-35.397 -27.792,-41.31 -4.0723,-4.6036 -11.798,-10.524 -16.499,-12.645 l -3.6745,-1.6574 6.1745,-4.5573 c 40.207,-29.677 84.043,-56.113 122.17,-73.681 13.984,-6.4429 41.941,-17.251 50.812,-19.643 l 6.8121,-1.8372 2.3305,2.4152 c 44.924,65.671 86.787,133.45 129.79,200.42 34.722,54.054 36.402,57.218 35.507,66.855 -0.6885,7.4142 -4.2032,15.74 -8.8948,21.07 -12.242,13.908 -41.428,27.62 -72.858,34.231 -12.239,2.5744 -13.429,2.6362 -57,2.9611 -35.759,0.26666 -45.34,0.0613 -48.778,-1.0452 z"
         id="path447"
         style="fill:#ffffff" />
      <path
         d="m -2711.1,625.71 c -33.027,-4.5766 -66.978,-17.241 -93.042,-34.707 -7.8132,-5.2358 -22.943,-17.504 -27.91,-22.631 -4.8244,-4.9803 -5.1721,-4.4599 10.91,-16.331 15.649,-11.552 53.478,-40.6 69.429,-53.313 6.914,-5.5106 22.696,-17.628 35.071,-26.928 12.375,-9.2996 27.11,-20.445 32.745,-24.767 13.299,-10.202 89.52,-67.255 108.26,-81.032 58.14,-42.754 103.33,-74.085 130.5,-90.468 73.92,-44.58 147.76,-70.281 222.5,-77.442 16.482,-1.5792 56.656,-1.5567 70.5,0.0396 30.352,3.4999 59.415,8.9095 81.697,15.207 27.606,7.802 66.094,22.787 89.837,34.978 16.267,8.3524 17.017,7.8637 -12.123,7.8999 -52.005,0.0646 -91.828,6.6073 -140.46,23.077 -49.67,16.82 -94.258,38.99 -143.17,71.188 -15.167,9.9833 -53.261,38.2 -75.363,55.822 -5.8246,4.6441 -16.625,13.159 -24,18.923 -19.163,14.975 -103.55,82.027 -128.41,102.03 -40.782,32.815 -102.55,81.679 -110.5,87.42 -5.224,3.7702 -11.973,8.0286 -14.998,9.463 l -5.5,2.6081 c -16.74,5.618 -50.805,1.9885 -75.958,-1.0367 z"
         fill="#0088ff"
         id="path448" />
    </g>
  </g>
</svg>
